<svg xmlns="http://www.w3.org/2000/svg" width="1440" height="900"><path d="M540,270L180,-90L180,270Z" fill="#a6dca0" stroke="#a6dca0" stroke-width="1.51"/><path d="M540,270L540,-90L180,-90Z" fill="#a8dca2" stroke="#a8dca2" stroke-width="1.51"/><path d="M180,-90L-180,-90L180,270Z" fill="#bce4b4" stroke="#bce4b4" stroke-width="1.51"/><path d="M-180,-90L-180,270L180,270Z" fill="#b9e3b2" stroke="#b9e3b2" stroke-width="1.51"/><path d="M540,-90L180,-450L180,-90Z" fill="#bee5b7" stroke="#bee5b7" stroke-width="1.51"/><path d="M180,-90L180,-450L-180,-90Z" fill="#cbeac4" stroke="#cbeac4" stroke-width="1.51"/><path d="M-180,270L180,630L180,270Z" fill="#a0d89c" stroke="#a0d89c" stroke-width="1.51"/><path d="M180,270L180,630L540,270Z" fill="#93d38f" stroke="#93d38f" stroke-width="1.51"/><path d="M540,-90L540,-450L180,-450Z" fill="#bee5b8" stroke="#bee5b8" stroke-width="1.51"/><path d="M180,630L540,630L540,270Z" fill="#82ca82" stroke="#82ca82" stroke-width="1.51"/><path d="M900,270L900,-90L540,270Z" fill="#89ce88" stroke="#89ce88" stroke-width="1.51"/><path d="M540,270L900,-90L540,-90Z" fill="#9ad595" stroke="#9ad595" stroke-width="1.51"/><path d="M540,-90L900,-90L540,-450Z" fill="#a9dba5" stroke="#a9dba5" stroke-width="1.51"/><path d="M540,630L900,270L540,270Z" fill="#7dc97d" stroke="#7dc97d" stroke-width="1.51"/><path d="M180,-450L-180,-450L-180,-90Z" fill="#d7f0d0" stroke="#d7f0d0" stroke-width="1.51"/><path d="M-180,270L-180,630L180,630Z" fill="#9cd59a" stroke="#9cd59a" stroke-width="1.51"/><path d="M900,-90L900,-450L540,-450Z" fill="#a9daa6" stroke="#a9daa6" stroke-width="1.51"/><path d="M540,630L900,630L900,270Z" fill="#6bbf71" stroke="#6bbf71" stroke-width="1.51"/><path d="M-180,-450L-540,-90L-180,-90Z" fill="#daf1d4" stroke="#daf1d4" stroke-width="1.51"/><path d="M-180,-90L-540,-90L-180,270Z" fill="#cbebc5" stroke="#cbebc5" stroke-width="1.51"/><path d="M-180,270L-540,270L-180,630Z" fill="#b0deac" stroke="#b0deac" stroke-width="1.51"/><path d="M-540,-90L-540,270L-180,270Z" fill="#c7e9c1" stroke="#c7e9c1" stroke-width="1.51"/><path d="M180,630L180,990L540,630Z" fill="#76c27d" stroke="#76c27d" stroke-width="1.51"/><path d="M540,630L540,990L900,630Z" fill="#5fb76b" stroke="#5fb76b" stroke-width="1.51"/><path d="M-180,630L180,990L180,630Z" fill="#84c789" stroke="#84c789" stroke-width="1.51"/><path d="M180,990L540,990L540,630Z" fill="#69b772" stroke="#69b772" stroke-width="1.51"/><path d="M900,-90L1260,-90L900,-450Z" fill="#93cf96" stroke="#93cf96" stroke-width="1.51"/><path d="M900,270L1260,-90L900,-90Z" fill="#83c987" stroke="#83c987" stroke-width="1.51"/><path d="M1260,270L1260,-90L900,270Z" fill="#74c17b" stroke="#74c17b" stroke-width="1.51"/><path d="M900,630L1260,270L900,270Z" fill="#65bc6f" stroke="#65bc6f" stroke-width="1.51"/><path d="M-180,-450L-540,-450L-540,-90Z" fill="#e5f5df" stroke="#e5f5df" stroke-width="1.51"/><path d="M-180,630L-180,990L180,990Z" fill="#84c289" stroke="#84c289" stroke-width="1.51"/><path d="M-540,270L-540,630L-180,630Z" fill="#aadaa9" stroke="#aadaa9" stroke-width="1.51"/><path d="M-540,630L-180,990L-180,630Z" fill="#94cd99" stroke="#94cd99" stroke-width="1.51"/><path d="M900,630L1260,630L1260,270Z" fill="#54b264" stroke="#54b264" stroke-width="1.51"/><path d="M540,990L900,990L900,630Z" fill="#50ac61" stroke="#50ac61" stroke-width="1.51"/><path d="M1260,-90L1260,-450L900,-450Z" fill="#94cd99" stroke="#94cd99" stroke-width="1.51"/><path d="M900,990L1260,630L900,630Z" fill="#44ab5d" stroke="#44ab5d" stroke-width="1.51"/><path d="M-540,630L-540,990L-180,990Z" fill="#92c897" stroke="#92c897" stroke-width="1.51"/><path d="M-180,990L180,1350L180,990Z" fill="#73b178" stroke="#73b178" stroke-width="1.51"/><path d="M180,990L180,1350L540,990Z" fill="#65ac6c" stroke="#65ac6c" stroke-width="1.51"/><path d="M540,990L540,1350L900,990Z" fill="#4ea25a" stroke="#4ea25a" stroke-width="1.51"/><path d="M-180,1350L180,1350L-180,990Z" fill="#73ac77" stroke="#73ac77" stroke-width="1.51"/><path d="M180,1350L540,1350L540,990Z" fill="#59a260" stroke="#59a260" stroke-width="1.51"/><path d="M900,990L1260,990L1260,630Z" fill="#379f54" stroke="#379f54" stroke-width="1.51"/><path d="M900,1350L1260,990L900,990Z" fill="#32964d" stroke="#32964d" stroke-width="1.51"/><path d="M1260,-90L1620,-90L1260,-450Z" fill="#84bf8a" stroke="#84bf8a" stroke-width="1.51"/><path d="M1260,270L1620,-90L1260,-90Z" fill="#74b97b" stroke="#74b97b" stroke-width="1.51"/><path d="M1620,270L1620,-90L1260,270Z" fill="#67b06f" stroke="#67b06f" stroke-width="1.51"/><path d="M1620,270L1260,270L1260,630Z" fill="#56ac63" stroke="#56ac63" stroke-width="1.51"/><path d="M1620,630L1620,270L1260,630Z" fill="#47a258" stroke="#47a258" stroke-width="1.51"/><path d="M-540,990L-180,1350L-180,990Z" fill="#83b887" stroke="#83b887" stroke-width="1.51"/><path d="M540,1350L900,1350L900,990Z" fill="#409750" stroke="#409750" stroke-width="1.51"/><path d="M1620,-90L1620,-450L1260,-450Z" fill="#87bd8c" stroke="#87bd8c" stroke-width="1.51"/><path d="M1260,990L1620,630L1260,630Z" fill="#339b51" stroke="#339b51" stroke-width="1.51"/><path d="M-540,990L-540,1350L-180,1350Z" fill="#81b285" stroke="#81b285" stroke-width="1.51"/><path d="M1260,990L1620,990L1620,630Z" fill="#288f48" stroke="#288f48" stroke-width="1.51"/><path d="M900,1350L1260,1350L1260,990Z" fill="#248b44" stroke="#248b44" stroke-width="1.51"/><path d="M1260,1350L1620,990L1260,990Z" fill="#1f8741" stroke="#1f8741" stroke-width="1.51"/><path d="M1620,-90L1980,-90L1620,-450Z" fill="#78af7c" stroke="#78af7c" stroke-width="1.51"/><path d="M1620,270L1980,-90L1620,-90Z" fill="#69a96d" stroke="#69a96d" stroke-width="1.51"/><path d="M1980,270L1980,-90L1620,270Z" fill="#5c9f62" stroke="#5c9f62" stroke-width="1.51"/><path d="M1980,270L1620,270L1620,630Z" fill="#4b9d56" stroke="#4b9d56" stroke-width="1.51"/><path d="M1980,630L1980,270L1620,630Z" fill="#3c914b" stroke="#3c914b" stroke-width="1.51"/><path d="M1980,-90L1980,-450L1620,-450Z" fill="#7cab7e" stroke="#7cab7e" stroke-width="1.51"/><path d="M1620,990L1980,630L1620,630Z" fill="#268c45" stroke="#268c45" stroke-width="1.51"/><path d="M1620,990L1980,990L1980,630Z" fill="#1c7f3c" stroke="#1c7f3c" stroke-width="1.51"/><path d="M1260,1350L1620,1350L1620,990Z" fill="#137b38" stroke="#137b38" stroke-width="1.51"/><path d="M1620,1350L1980,990L1620,990Z" fill="#0f7835" stroke="#0f7835" stroke-width="1.51"/><path d="M1620,1350L1980,1350L1980,990Z" fill="#026b2c" stroke="#026b2c" stroke-width="1.51"/></svg>