<svg xmlns="http://www.w3.org/2000/svg" width="1440" height="900"><path d="M540,270L180,-90L180,270Z" fill="#fec859" stroke="#fec859" stroke-width="1.51"/><path d="M540,270L540,-90L180,-90Z" fill="#ffc95f" stroke="#ffc95f" stroke-width="1.51"/><path d="M180,-90L-180,-90L180,270Z" fill="#ffd97d" stroke="#ffd97d" stroke-width="1.51"/><path d="M-180,-90L-180,270L180,270Z" fill="#ffd678" stroke="#ffd678" stroke-width="1.51"/><path d="M540,-90L180,-450L180,-90Z" fill="#ffda80" stroke="#ffda80" stroke-width="1.51"/><path d="M180,-90L180,-450L-180,-90Z" fill="#ffe595" stroke="#ffe595" stroke-width="1.51"/><path d="M-180,270L180,630L180,270Z" fill="#ffc15e" stroke="#ffc15e" stroke-width="1.51"/><path d="M180,270L180,630L540,270Z" fill="#ffb647" stroke="#ffb647" stroke-width="1.51"/><path d="M540,-90L540,-450L180,-450Z" fill="#ffd981" stroke="#ffd981" stroke-width="1.51"/><path d="M180,630L540,630L540,270Z" fill="#fda737" stroke="#fda737" stroke-width="1.51"/><path d="M900,270L900,-90L540,270Z" fill="#fdad3f" stroke="#fdad3f" stroke-width="1.51"/><path d="M540,270L900,-90L540,-90Z" fill="#ffbb53" stroke="#ffbb53" stroke-width="1.51"/><path d="M540,-90L900,-90L540,-450Z" fill="#ffc66c" stroke="#ffc66c" stroke-width="1.51"/><path d="M540,630L900,270L540,270Z" fill="#fea231" stroke="#fea231" stroke-width="1.51"/><path d="M180,-450L-180,-450L-180,-90Z" fill="#ffeda7" stroke="#ffeda7" stroke-width="1.51"/><path d="M-180,270L-180,630L180,630Z" fill="#ffbb61" stroke="#ffbb61" stroke-width="1.51"/><path d="M900,-90L900,-450L540,-450Z" fill="#ffc471" stroke="#ffc471" stroke-width="1.51"/><path d="M540,630L900,630L900,270Z" fill="#fb9125" stroke="#fb9125" stroke-width="1.51"/><path d="M-180,-450L-540,-90L-180,-90Z" fill="#fff0ac" stroke="#fff0ac" stroke-width="1.51"/><path d="M-180,-90L-540,-90L-180,270Z" fill="#ffe495" stroke="#ffe495" stroke-width="1.51"/><path d="M-180,270L-540,270L-180,630Z" fill="#ffcc76" stroke="#ffcc76" stroke-width="1.51"/><path d="M-540,-90L-540,270L-180,270Z" fill="#ffdf8e" stroke="#ffdf8e" stroke-width="1.51"/><path d="M180,630L180,990L540,630Z" fill="#f59c38" stroke="#f59c38" stroke-width="1.51"/><path d="M540,630L540,990L900,630Z" fill="#f38621" stroke="#f38621" stroke-width="1.51"/><path d="M-180,630L180,990L180,630Z" fill="#f7a64f" stroke="#f7a64f" stroke-width="1.51"/><path d="M180,990L540,990L540,630Z" fill="#ed8e2b" stroke="#ed8e2b" stroke-width="1.51"/><path d="M900,-90L1260,-90L900,-450Z" fill="#fcb261" stroke="#fcb261" stroke-width="1.51"/><path d="M900,270L1260,-90L900,-90Z" fill="#faa748" stroke="#faa748" stroke-width="1.51"/><path d="M1260,270L1260,-90L900,270Z" fill="#f49a36" stroke="#f49a36" stroke-width="1.51"/><path d="M900,630L1260,270L900,270Z" fill="#f78d25" stroke="#f78d25" stroke-width="1.51"/><path d="M-180,-450L-540,-450L-540,-90Z" fill="#fff6bd" stroke="#fff6bd" stroke-width="1.51"/><path d="M-180,630L-180,990L180,990Z" fill="#f1a254" stroke="#f1a254" stroke-width="1.51"/><path d="M-540,270L-540,630L-180,630Z" fill="#ffc476" stroke="#ffc476" stroke-width="1.51"/><path d="M-540,630L-180,990L-180,630Z" fill="#fab167" stroke="#fab167" stroke-width="1.51"/><path d="M900,630L1260,630L1260,270Z" fill="#f17d1b" stroke="#f17d1b" stroke-width="1.51"/><path d="M540,990L900,990L900,630Z" fill="#eb7718" stroke="#eb7718" stroke-width="1.51"/><path d="M1260,-90L1260,-450L900,-450Z" fill="#fab167" stroke="#fab167" stroke-width="1.51"/><path d="M900,990L1260,630L900,630Z" fill="#ec7215" stroke="#ec7215" stroke-width="1.51"/><path d="M-540,630L-540,990L-180,990Z" fill="#f5ab69" stroke="#f5ab69" stroke-width="1.51"/><path d="M-180,990L180,1350L180,990Z" fill="#de9146" stroke="#de9146" stroke-width="1.51"/><path d="M180,990L180,1350L540,990Z" fill="#db8630" stroke="#db8630" stroke-width="1.51"/><path d="M540,990L540,1350L900,990Z" fill="#da7119" stroke="#da7119" stroke-width="1.51"/><path d="M-180,1350L180,1350L-180,990Z" fill="#d38f4d" stroke="#d38f4d" stroke-width="1.51"/><path d="M180,1350L540,1350L540,990Z" fill="#cf7a26" stroke="#cf7a26" stroke-width="1.51"/><path d="M900,990L1260,990L1260,630Z" fill="#e0630d" stroke="#e0630d" stroke-width="1.51"/><path d="M900,1350L1260,990L900,990Z" fill="#d25c0d" stroke="#d25c0d" stroke-width="1.51"/><path d="M1260,-90L1620,-90L1260,-450Z" fill="#eea158" stroke="#eea158" stroke-width="1.51"/><path d="M1260,270L1620,-90L1260,-90Z" fill="#eb9540" stroke="#eb9540" stroke-width="1.51"/><path d="M1620,270L1620,-90L1260,270Z" fill="#e3892f" stroke="#e3892f" stroke-width="1.51"/><path d="M1620,270L1260,270L1260,630Z" fill="#e87b1c" stroke="#e87b1c" stroke-width="1.51"/><path d="M1620,630L1620,270L1260,630Z" fill="#df6d14" stroke="#df6d14" stroke-width="1.51"/><path d="M-540,990L-180,1350L-180,990Z" fill="#e19b5d" stroke="#e19b5d" stroke-width="1.51"/><path d="M540,1350L900,1350L900,990Z" fill="#cc6414" stroke="#cc6414" stroke-width="1.51"/><path d="M1620,-90L1620,-450L1260,-450Z" fill="#e8a05f" stroke="#e8a05f" stroke-width="1.51"/><path d="M1260,990L1620,630L1260,630Z" fill="#dc5f0b" stroke="#dc5f0b" stroke-width="1.51"/><path d="M-540,990L-540,1350L-180,1350Z" fill="#d69762" stroke="#d69762" stroke-width="1.51"/><path d="M1260,990L1620,990L1620,630Z" fill="#ce5206" stroke="#ce5206" stroke-width="1.51"/><path d="M900,1350L1260,1350L1260,990Z" fill="#c2500a" stroke="#c2500a" stroke-width="1.51"/><path d="M1260,1350L1620,990L1260,990Z" fill="#c34903" stroke="#c34903" stroke-width="1.51"/><path d="M1620,-90L1980,-90L1620,-450Z" fill="#d59253" stroke="#d59253" stroke-width="1.51"/><path d="M1620,270L1980,-90L1620,-90Z" fill="#d2873c" stroke="#d2873c" stroke-width="1.51"/><path d="M1980,270L1980,-90L1620,270Z" fill="#c87c2d" stroke="#c87c2d" stroke-width="1.51"/><path d="M1980,270L1620,270L1620,630Z" fill="#cf6e1a" stroke="#cf6e1a" stroke-width="1.51"/><path d="M1980,630L1980,270L1620,630Z" fill="#c46013" stroke="#c46013" stroke-width="1.51"/><path d="M1980,-90L1980,-450L1620,-450Z" fill="#cd925b" stroke="#cd925b" stroke-width="1.51"/><path d="M1620,990L1980,630L1620,630Z" fill="#c4520a" stroke="#c4520a" stroke-width="1.51"/><path d="M1620,990L1980,990L1980,630Z" fill="#b44607" stroke="#b44607" stroke-width="1.51"/><path d="M1260,1350L1620,1350L1620,990Z" fill="#b13f04" stroke="#b13f04" stroke-width="1.51"/><path d="M1620,1350L1980,990L1620,990Z" fill="#ab3c04" stroke="#ab3c04" stroke-width="1.51"/><path d="M1620,1350L1980,1350L1980,990Z" fill="#973405" stroke="#973405" stroke-width="1.51"/></svg>