<svg xmlns="http://www.w3.org/2000/svg" width="1440" height="900"><path d="M554,615L223,284L223,615Z" fill="#f784ab" stroke="#f784ab" stroke-width="1.51"/><path d="M554,615L554,284L223,284Z" fill="#f986ab" stroke="#f986ab" stroke-width="1.51"/><path d="M223,284L-108,284L223,615Z" fill="#fb9bb1" stroke="#fb9bb1" stroke-width="1.51"/><path d="M-108,284L-108,615L223,615Z" fill="#f997b2" stroke="#f997b2" stroke-width="1.51"/><path d="M554,284L223,-47L223,284Z" fill="#fba5b7" stroke="#fba5b7" stroke-width="1.51"/><path d="M223,284L223,-47L-108,284Z" fill="#fbb1ba" stroke="#fbb1ba" stroke-width="1.51"/><path d="M-108,615L223,946L223,615Z" fill="#ec80a9" stroke="#ec80a9" stroke-width="1.51"/><path d="M223,615L223,946L554,615Z" fill="#eb72a6" stroke="#eb72a6" stroke-width="1.51"/><path d="M554,284L554,-47L223,-47Z" fill="#fba6b7" stroke="#fba6b7" stroke-width="1.51"/><path d="M223,946L554,946L554,615Z" fill="#df639e" stroke="#df639e" stroke-width="1.51"/><path d="M885,615L885,284L554,615Z" fill="#f25f9f" stroke="#f25f9f" stroke-width="1.51"/><path d="M554,615L885,284L554,284Z" fill="#f874a4" stroke="#f874a4" stroke-width="1.51"/><path d="M554,284L885,284L554,-47Z" fill="#f98bad" stroke="#f98bad" stroke-width="1.51"/><path d="M554,946L885,615L554,615Z" fill="#e8549c" stroke="#e8549c" stroke-width="1.51"/><path d="M223,-47L-108,-47L-108,284Z" fill="#fcbfc0" stroke="#fcbfc0" stroke-width="1.51"/><path d="M-108,615L-108,946L223,946Z" fill="#e27fa7" stroke="#e27fa7" stroke-width="1.51"/><path d="M885,284L885,-47L554,-47Z" fill="#f88dad" stroke="#f88dad" stroke-width="1.51"/><path d="M554,946L885,946L885,615Z" fill="#db4394" stroke="#db4394" stroke-width="1.51"/><path d="M223,-47L223,-378L-108,-47Z" fill="#fdc8c5" stroke="#fdc8c5" stroke-width="1.51"/><path d="M554,-47L223,-378L223,-47Z" fill="#fcbcc2" stroke="#fcbcc2" stroke-width="1.51"/><path d="M554,-378L223,-378L554,-47Z" fill="#fdbbc6" stroke="#fdbbc6" stroke-width="1.51"/><path d="M885,-47L554,-378L554,-47Z" fill="#fca4b8" stroke="#fca4b8" stroke-width="1.51"/><path d="M885,284L1216,284L885,-47Z" fill="#ef75a8" stroke="#ef75a8" stroke-width="1.51"/><path d="M885,615L1216,284L885,284Z" fill="#ed5c9f" stroke="#ed5c9f" stroke-width="1.51"/><path d="M1216,615L1216,284L885,615Z" fill="#e34899" stroke="#e34899" stroke-width="1.51"/><path d="M885,946L1216,615L885,615Z" fill="#dc3796" stroke="#dc3796" stroke-width="1.51"/><path d="M-108,-47L-440,284L-108,284Z" fill="#fcc0c7" stroke="#fcc0c7" stroke-width="1.51"/><path d="M-108,284L-440,284L-108,615Z" fill="#fdabbe" stroke="#fdabbe" stroke-width="1.51"/><path d="M-108,615L-440,615L-108,946Z" fill="#ee8fb6" stroke="#ee8fb6" stroke-width="1.51"/><path d="M-440,-47L-440,284L-108,-47Z" fill="#fdccce" stroke="#fdccce" stroke-width="1.51"/><path d="M-440,284L-440,615L-108,615Z" fill="#fba5c0" stroke="#fba5c0" stroke-width="1.51"/><path d="M223,946L223,1278L554,946Z" fill="#c96199" stroke="#c96199" stroke-width="1.51"/><path d="M554,946L554,1278L885,946Z" fill="#c74390" stroke="#c74390" stroke-width="1.51"/><path d="M-108,946L223,1278L223,946Z" fill="#cb6e9d" stroke="#cb6e9d" stroke-width="1.51"/><path d="M-108,1278L223,1278L-108,946Z" fill="#bf719f" stroke="#bf719f" stroke-width="1.51"/><path d="M885,946L1216,946L1216,615Z" fill="#cc268e" stroke="#cc268e" stroke-width="1.51"/><path d="M223,1278L554,1278L554,946Z" fill="#bd5695" stroke="#bd5695" stroke-width="1.51"/><path d="M223,-378L-108,-378L-108,-47Z" fill="#fdd3cf" stroke="#fdd3cf" stroke-width="1.51"/><path d="M885,-47L885,-378L554,-378Z" fill="#fba2bc" stroke="#fba2bc" stroke-width="1.51"/><path d="M1216,-47L885,-378L885,-47Z" fill="#f28eb3" stroke="#f28eb3" stroke-width="1.51"/><path d="M1216,284L1216,-47L885,-47Z" fill="#ea79a7" stroke="#ea79a7" stroke-width="1.51"/><path d="M885,1278L1216,946L885,946Z" fill="#bc248a" stroke="#bc248a" stroke-width="1.51"/><path d="M-108,-378L-440,-47L-108,-47Z" fill="#fdd7d2" stroke="#fdd7d2" stroke-width="1.51"/><path d="M-440,615L-440,946L-108,946Z" fill="#e48db4" stroke="#e48db4" stroke-width="1.51"/><path d="M-440,946L-108,1278L-108,946Z" fill="#cd7ea9" stroke="#cd7ea9" stroke-width="1.51"/><path d="M554,1278L885,1278L885,946Z" fill="#b9378c" stroke="#b9378c" stroke-width="1.51"/><path d="M1216,-47L1216,-378L885,-378Z" fill="#ed8fb6" stroke="#ed8fb6" stroke-width="1.51"/><path d="M-108,-378L-440,-378L-440,-47Z" fill="#fde1dd" stroke="#fde1dd" stroke-width="1.51"/><path d="M885,1278L1216,1278L1216,946Z" fill="#aa1986" stroke="#aa1986" stroke-width="1.51"/><path d="M1216,284L1548,284L1216,-47Z" fill="#d9659c" stroke="#d9659c" stroke-width="1.51"/><path d="M1216,-47L1548,-47L1216,-378Z" fill="#dc7ea7" stroke="#dc7ea7" stroke-width="1.51"/><path d="M1216,615L1548,284L1216,284Z" fill="#d74b94" stroke="#d74b94" stroke-width="1.51"/><path d="M1548,615L1548,284L1216,615Z" fill="#cb398e" stroke="#cb398e" stroke-width="1.51"/><path d="M1548,615L1216,615L1216,946Z" fill="#c7218b" stroke="#c7218b" stroke-width="1.51"/><path d="M1548,946L1548,615L1216,946Z" fill="#b41283" stroke="#b41283" stroke-width="1.51"/><path d="M-440,946L-440,1278L-108,1278Z" fill="#c17eac" stroke="#c17eac" stroke-width="1.51"/><path d="M1548,284L1548,-47L1216,-47Z" fill="#d16b9c" stroke="#d16b9c" stroke-width="1.51"/><path d="M1216,1278L1548,946L1216,946Z" fill="#a6067f" stroke="#a6067f" stroke-width="1.51"/><path d="M1548,-47L1548,-378L1216,-378Z" fill="#d480ab" stroke="#d480ab" stroke-width="1.51"/><path d="M1216,1278L1548,1278L1548,946Z" fill="#93017b" stroke="#93017b" stroke-width="1.51"/><path d="M1548,284L1879,284L1548,-47Z" fill="#bf5d97" stroke="#bf5d97" stroke-width="1.51"/><path d="M1548,-47L1879,-47L1548,-378Z" fill="#c175a2" stroke="#c175a2" stroke-width="1.51"/><path d="M1548,615L1879,284L1548,284Z" fill="#bd438f" stroke="#bd438f" stroke-width="1.51"/><path d="M1879,615L1879,284L1548,615Z" fill="#b1348a" stroke="#b1348a" stroke-width="1.51"/><path d="M1879,615L1548,615L1548,946Z" fill="#ad1b86" stroke="#ad1b86" stroke-width="1.51"/><path d="M1879,946L1879,615L1548,946Z" fill="#9a0e7f" stroke="#9a0e7f" stroke-width="1.51"/><path d="M1879,284L1879,-47L1548,-47Z" fill="#b76398" stroke="#b76398" stroke-width="1.51"/><path d="M1548,1278L1879,946L1548,946Z" fill="#8d007a" stroke="#8d007a" stroke-width="1.51"/><path d="M1879,-47L1879,-378L1548,-378Z" fill="#b978a7" stroke="#b978a7" stroke-width="1.51"/><path d="M1548,1278L1879,1278L1879,946Z" fill="#790077" stroke="#790077" stroke-width="1.51"/></svg>