<svg xmlns="http://www.w3.org/2000/svg" xmlns:xlink="http://www.w3.org/1999/xlink" xmlns:fi="http://pattern.flaticon.com/" x="0" y="0" width="700" height="350" viewBox="0 0 700 350"><rect x="0px" y="0px" width="100%" height="100%" opacity="1" fill="#009688"/><defs><g transform="matrix(0.062066997101361765 -0.006533368188125182 0.006533368188125182 0.062066997101361765 159.43830648589133 173.78339099821144)" id="L1_0"><g><path d="M122.628,192.122c67.727,0,122.628,45.368,122.628,101.333c0,40.287-28.451,75.082-69.657,91.414    c1.239,6.178,9.214,25.643,21.498,38.982c0,0-42.848-13.818-62.677-31.584c-6.297,0.824-10.992,1.215-17.567,1.215    C49.127,393.482,0,349.418,0,293.455C0,237.49,54.903,192.122,122.628,192.122z" fill="#2d404e"/><path d="M197.097,423.851c-12.284-13.34-20.259-32.805-21.498-38.982    c41.206-16.332,69.657-51.127,69.657-91.414c0-55.964-54.901-101.333-122.628-101.333c0,0,53.185,2.113,85.15,36.656    s35.211,70.51,15.251,105.834c-19.962,35.322-59.505,45.113-59.505,45.113S168.595,408.849,197.097,423.851z" fill="#253744"/><g><g><circle cx="121" cy="292" r="17" fill="#253744"/><circle cx="119" cy="292" r="16" fill="#e2e5e7"/></g><g><circle cx="71" cy="292" r="17" fill="#253744"/><circle cx="70" cy="292" r="16" fill="#e2e5e7"/></g></g><path d="M245.256,293.454c0-38.913-26.542-72.702-65.483-89.681    L64.045,383.431c16.564,6.116,24.916,8.818,50.302,9.957c6.568,0.295,13.776-0.297,20.073-1.121    c19.829,17.766,62.677,31.584,62.677,31.584c-12.284-13.34-20.259-32.805-21.498-38.982    C216.805,368.536,245.256,333.741,245.256,293.454z" opacity="0.52" fill="#253744"/></g><path d="M179.773,203.773c0,0-12.161,35.092-0.493,68.162s47.123,65.557,52.942,67.031l5.923-11.424   l-55.896-122.654L179.773,203.773z" fill="#1d2f3a"/><g><path d="M345.641,88.149c-91.88,0-166.361,61.547-166.361,137.47c0,54.654,38.599,101.857,94.498,124.013    c-1.681,8.383-6.977,25.127-23.642,43.221c0,0,42.387-7.371,69.287-31.469c8.542,1.117,17.296,1.705,26.218,1.705    c91.877,0,166.359-61.549,166.359-137.47C512,149.696,437.518,88.149,345.641,88.149z" fill="#eb8923"/><path d="M250.136,392.853c16.665-18.094,21.961-34.838,23.642-43.221    c-55.899-22.156-94.498-69.359-94.498-124.013c0-75.923,74.481-137.47,166.361-137.47c0,0-72.152,2.868-115.518,49.729    c-43.364,46.861-47.77,95.655-20.689,143.575c27.08,47.922,80.725,61.203,80.725,61.203S288.802,372.503,250.136,392.853z" fill="#d27228"/><g><g><circle cx="280" cy="223" r="23" fill="#d27228"/><circle cx="282" cy="223" r="22" fill="#e2e5e7"/></g><g><circle cx="347" cy="223" r="23" fill="#d27228"/><circle cx="349" cy="223" r="22" fill="#e2e5e7"/></g><g><circle cx="414" cy="223" r="23" fill="#d27228"/><circle cx="416" cy="223" r="22" fill="#e2e5e7"/></g></g></g></g><g transform="matrix(0.02209708729475864 -0.03038349404649425 0.03038349404649425 0.02209708729475864 329.56497117663923 113.12132012844431)" id="L1_1"><circle cx="256" cy="256" r="256" fill="#2d404e"/><path d="M512,256c0-51.363-15.124-99.191-41.165-139.275c0,0-14.604,21.334-11.86,35.047   c2.742,13.715,18.855,14.762,17.2,24.822s-13.541-2.879-28.172,23.633c-14.63,26.514-7.312,63.096,13.714,65.834   C482.744,268.797,512,256,512,256z" fill="#48b19b"/><path d="M323.23,8.92c29.797,8.088,57.434,21.424,81.857,38.951c0,0-29.684-4.896-40.929,5.158   c-11.244,10.057-27.643,33.832-40.929,0C309.945,19.199,323.23,8.92,323.23,8.92z" fill="#48b19b"/><path d="M63.519,87.219C110.437,33.754,179.275,0,256,0c0,0-17.368,10.516,15.546,28.344   c32.915,17.83,17.828,26.057,10.971,31.543c-6.856,5.486-18.749-10.971-26.517-21.941c-7.769-10.973-41.132-27.885-66.734-18.74   c-25.601,9.145-47.539,15.9-43.885,24.408c3.653,8.506,47.539-7.945,63.996-7.035c16.457,0.912,10.971,10.967-4.569,22.854   c-15.542,11.887-17.374,26.514-0.916,35.656c16.456,9.146,36.566,10.061,41.143,4.576c4.574-5.486-8.229-41.143,22.858-25.602   s56.688,24.691,31.087,47.545c-25.602,22.852-54.857,48.461-55.773,63.084c-0.916,14.625,9.146,26.52,3.66,27.43   c-5.486,0.91-10.521-5.941-14.176-10.973c-3.653-5.029-20.571-6.855-28.799-3.658c-8.229,3.197-23.774,15.541-15.086,27.428   c8.689,11.889,20.565,6.396,32.454,11.883c11.887,5.486,22.972,26.365,20.696,31.084c-2.276,4.717-12.409-1.256-20.696-17.369   c-8.289-16.115-23.835-5.486-34.773-8.229c-10.939-2.742-19.168-4.57-30.14-23.771c-10.972-19.199-33.687-24.572-42.969-35.656   c-26.589-31.75-24.687-55.771-30.172-66.742C77.72,105.145,63.519,87.219,63.519,87.219z" fill="#48b19b"/><path d="M280.685,259.658c0,0,27.429,2.738,41.143,14.627c13.714,11.887,15.546,16.461,36.573,21.031   c21.027,4.568,30.172,16.451,16.457,39.311c-13.714,22.857-38.404,59.43-50.287,70.402c-11.882,10.973-26.512,20.115-31.998,38.4   c-5.485,18.283-7.317,29.248,4.57,36.568c0,0-6.396,15.545-21.026-4.57c-14.631-20.117-2.744-43.885,0-57.6   c2.742-13.713,10.055-54.852,5.484-64.914c-4.568-10.059-25.601-16.461-31.087-37.486   C245.028,294.401,254.629,253.483,280.685,259.658z" fill="#48b19b"/><path d="M74.98,74.983c99.975-99.977,262.062-99.975,362.038,0   c99.976,99.973,99.976,262.062,0.001,362.037c0,0,116.148-153.59-48.293-318.031C224.284-45.453,74.98,74.983,74.98,74.983z" opacity="0.6" fill="#253744"/></g><g transform="matrix(2.6380373743311444e-18 0.04308241978287697 -0.04308241978287697 2.6380373743311444e-18 349.029042194029 80.9709233691521)" id="L1_2"><path d="M264,445.93V352V232c0-4.418-3.582-8-8-8c-4.418,0-8,3.582-8,8v120v93.93h-25.391   c-2.293,0-4.509-0.322-6.609-0.915v24.915c0,4.422,3.578,8,8,8h24V504c0,4.418,3.582,8,8,8c4.418,0,8-3.582,8-8v-26.07h24   c4.422,0,8-3.578,8-8v-24.915c-2.101,0.593-4.317,0.915-6.609,0.915H264z" fill="#5c546a"/><path d="M439.89,500.617l-20.148-120.914c-2.727-16.359-9.43-32.023-19.391-45.297L320,227.269V349.93   l-6.13,67.747L427,508.179c1.453,1.156,3.227,1.75,5,1.75c1.391,0,2.789-0.359,4.047-1.102   C438.906,507.148,440.437,503.883,439.89,500.617z" fill="#5c546a"/><path d="M192.153,352l-0.122-1.344l-0.017-123.407l-80.366,107.157   c-9.961,13.273-16.664,28.937-19.391,45.297L72.109,500.617c-0.547,3.266,0.984,6.531,3.844,8.211   c1.258,0.742,2.656,1.102,4.047,1.102c1.773,0,3.547-0.594,5-1.75l113.127-90.501L192.153,352L192.153,352z" fill="#5c546a"/><path d="M320,227.269V125.93c0-44.911-26.015-89.408-42.771-113.401   c8.448,12.104,19.231,29.443,27.868,49.399H256V103c17.081,0,30.928,13.847,30.928,30.928c0,17.081-13.847,30.928-30.928,30.928   V224c4.418,0,8,3.582,8,8v120h55.812l-6.523,72.102l0.581-6.425L320,349.93V227.269z" fill="#ff4f19"/><path d="M192.153,352H248V232c0-4.418,3.582-8,8-8v-59.143c-17.081,0-30.928-13.847-30.928-30.928   C225.072,116.847,238.919,103,256,103V61.928h-49.097c8.636-19.956,19.419-37.295,27.868-49.399   C218.015,36.521,192,81.019,192,125.93l0.014,101.32l0.017,123.407L192.153,352z" fill="#e5001e"/><path d="M319.813,352H264v93.93h25.391c2.293,0,4.509-0.322,6.609-0.915   c9.344-2.638,16.364-10.752,17.289-20.913L319.813,352z" fill="#b6b8be"/><path d="M248,445.93V352h-55.847l0,0l0,0l5.973,65.678l0.584,6.423c0.925,10.161,7.945,18.275,17.289,20.913   c2.101,0.593,4.316,0.915,6.609,0.915H248z" fill="#888693"/><circle cx="256" cy="133" r="30" fill="#5c546a"/><path d="M256,61.928V0c-7.711,0-14.992,3.758-19.484,10.055c-0.539,0.755-1.089,1.534-1.649,2.337   c-0.031,0.045-0.064,0.093-0.095,0.137c-8.448,12.104-19.231,29.443-27.868,49.399H256z" fill="#5c546a"/><path d="M305.097,61.928c-8.636-19.956-19.42-37.295-27.868-49.399c-0.031-0.045-0.064-0.093-0.095-0.137   c-0.561-0.802-1.111-1.582-1.649-2.337C270.992,3.758,263.711,0,256,0v61.928H305.097z" fill="#888693"/></g><g transform="matrix(0.05644407356713435 0.01328095807928244 -0.01328095807928244 0.05644407356713435 333.86413961787684 233.61421217447892)" id="L1_3"><path d="M348.75,372.05V37.45c0-8.409,2.798-16.186,7.508-22.45H83.15c-12.561,0-22.4,9.642-22.4,21.95   v335.1c0,12.655,10.048,22.95,22.4,22.95h73.6v-45.081c-12.53-12.625-19.65-29.762-19.65-47.569c0-37.22,30.28-67.5,67.5-67.5   s67.5,30.28,67.5,67.5c0,18.179-7.378,35.572-20.35,48.251v44.385l104.626-0.185C351.596,388.47,348.75,380.585,348.75,372.05z    M128.681,85.064l23.34-30c1.421-1.826,3.605-2.895,5.919-2.895c2.315,0,4.5,1.069,5.92,2.896l17.411,22.388l17.419-22.39   c1.421-1.826,3.605-2.895,5.919-2.895c2.315,0,4.5,1.069,5.92,2.896l17.41,22.387l17.41-22.387c1.421-1.827,3.606-2.896,5.92-2.896   s4.5,1.069,5.92,2.896l23.33,30c2.543,3.27,1.954,7.981-1.316,10.524c-3.27,2.543-7.982,1.953-10.524-1.316l-17.41-22.387   l-17.41,22.387c-1.421,1.827-3.606,2.896-5.92,2.896s-4.5-1.069-5.92-2.896l-17.411-22.388l-17.419,22.39   c-1.421,1.826-3.605,2.895-5.919,2.895c-2.315,0-4.5-1.069-5.92-2.896l-17.411-22.388l-17.419,22.39   c-1.479,1.9-3.69,2.895-5.925,2.895c-1.609,0-3.231-0.516-4.6-1.581C126.726,93.046,126.137,88.334,128.681,85.064z M104.75,122   h140c4.142,0,7.5,3.358,7.5,7.5s-3.358,7.5-7.5,7.5h-140c-4.142,0-7.5-3.358-7.5-7.5S100.608,122,104.75,122z M274.75,197h-140   c-4.142,0-7.5-3.358-7.5-7.5s3.358-7.5,7.5-7.5h140c4.142,0,7.5,3.358,7.5,7.5S278.892,197,274.75,197z M304.75,167h-200   c-4.142,0-7.5-3.358-7.5-7.5s3.358-7.5,7.5-7.5h200c4.142,0,7.5,3.358,7.5,7.5S308.892,167,304.75,167z M304.75,137h-30   c-4.142,0-7.5-3.358-7.5-7.5s3.358-7.5,7.5-7.5h30c4.142,0,7.5,3.358,7.5,7.5S308.892,137,304.75,137z" fill="#f2ebd9"/><path d="M386.095,15c-12.322,0.052-22.345,10.12-22.345,22.45V82h45V36.95   C408.75,24.852,398.589,15.008,386.095,15z" fill="#c1e8e6"/><path d="M363.75,372.05c0,12.466,10.019,22.644,22.338,22.7c12.292-0.012,22.662-10.402,22.662-22.7V327h-45   V372.05z" fill="#c1e8e6"/><path d="M204.6,249.85c-28.949,0-52.5,23.551-52.5,52.5c0,14.779,6.314,28.973,17.324,38.94   c9.669,8.743,22.163,13.56,35.176,13.56c12.255,0,24.082-4.302,33.493-12.127c0.677-0.972,1.575-1.777,2.625-2.339   c10.428-9.909,16.382-23.653,16.382-38.034C257.1,273.401,233.549,249.85,204.6,249.85z M204.6,339.85   c-20.678,0-37.5-16.822-37.5-37.5s16.822-37.5,37.5-37.5s37.5,16.822,37.5,37.5S225.278,339.85,204.6,339.85z" fill="#bd1515"/><path d="M207.604,435.292l29.146,14.573v-88.183c-9.802,5.324-20.836,8.168-32.15,8.168   c-11.602,0-22.879-2.98-32.85-8.551v88.566l29.146-14.573C203.007,434.236,205.493,434.236,207.604,435.292z" fill="#f2484b"/><path d="M204.6,279.85c-12.407,0-22.5,10.093-22.5,22.5s10.093,22.5,22.5,22.5s22.5-10.093,22.5-22.5   S217.007,279.85,204.6,279.85z" fill="#f2484b"/><path d="M416.25,97c4.142,0,7.5-3.358,7.5-7.5V36.95C423.75,16.576,406.852,0,386.081,0H83.15   c-20.972,0-37.4,16.23-37.4,36.95v335.1c0,20.926,16.777,37.95,37.4,37.95h73.6v52c0,2.599,1.346,5.013,3.557,6.38   s4.973,1.491,7.297,0.328l36.646-18.323l36.646,18.323c1.059,0.529,2.208,0.792,3.354,0.792c1.372,0,2.739-0.376,3.943-1.12   c2.211-1.367,3.557-3.781,3.557-6.38v-52.013l134.33-0.237c20.772,0,37.67-16.912,37.67-37.7V319.5c0-4.142-3.358-7.5-7.5-7.5   h-52.5V97H416.25z M408.75,372.05c0,12.298-10.369,22.688-22.662,22.7c-12.319-0.056-22.338-10.234-22.338-22.7V327h45V372.05z    M240.718,340.384c-1.05,0.562-1.948,1.367-2.625,2.339c-9.411,7.825-21.239,12.127-33.493,12.127   c-13.013,0-25.507-4.817-35.176-13.56c-11.009-9.967-17.324-24.161-17.324-38.94c0-28.949,23.551-52.5,52.5-52.5   s52.5,23.551,52.5,52.5C257.1,316.731,251.146,330.475,240.718,340.384z M171.75,449.865v-88.566   c9.971,5.571,21.248,8.551,32.85,8.551c11.314,0,22.348-2.844,32.15-8.168v88.183l-29.146-14.573c-2.111-1.056-4.597-1.056-6.708,0   L171.75,449.865z M251.75,350.601c12.972-12.679,20.35-30.072,20.35-48.251c0-37.22-30.28-67.5-67.5-67.5s-67.5,30.28-67.5,67.5   c0,17.806,7.12,34.943,19.65,47.569V395h-73.6c-12.352,0-22.4-10.295-22.4-22.95V36.95c0-12.309,9.839-21.95,22.4-21.95h273.108   c-4.71,6.264-7.508,14.041-7.508,22.45v334.6c0,8.535,2.846,16.42,7.626,22.752l-104.626,0.185V350.601z M408.75,82h-45V37.45   c0-12.33,10.023-22.398,22.345-22.45c12.494,0.008,22.655,9.851,22.655,21.95V82z" fill="#082947"/><path d="M204.6,264.85c-20.678,0-37.5,16.822-37.5,37.5s16.822,37.5,37.5,37.5s37.5-16.822,37.5-37.5   S225.278,264.85,204.6,264.85z M204.6,324.85c-12.407,0-22.5-10.093-22.5-22.5s10.093-22.5,22.5-22.5s22.5,10.093,22.5,22.5   S217.007,324.85,204.6,324.85z" fill="#082947"/><path d="M304.75,152h-200c-4.142,0-7.5,3.358-7.5,7.5s3.358,7.5,7.5,7.5h200c4.142,0,7.5-3.358,7.5-7.5   S308.892,152,304.75,152z" fill="#082947"/><path d="M274.75,182h-140c-4.142,0-7.5,3.358-7.5,7.5s3.358,7.5,7.5,7.5h140c4.142,0,7.5-3.358,7.5-7.5   S278.892,182,274.75,182z" fill="#082947"/><path d="M304.75,122h-30c-4.142,0-7.5,3.358-7.5,7.5s3.358,7.5,7.5,7.5h30c4.142,0,7.5-3.358,7.5-7.5   S308.892,122,304.75,122z" fill="#082947"/><path d="M104.75,137h140c4.142,0,7.5-3.358,7.5-7.5s-3.358-7.5-7.5-7.5h-140c-4.142,0-7.5,3.358-7.5,7.5   S100.608,137,104.75,137z" fill="#082947"/><path d="M129.995,95.589c1.369,1.065,2.991,1.581,4.6,1.581c2.235,0,4.446-0.995,5.925-2.895l17.419-22.39   l17.411,22.388c1.421,1.827,3.605,2.896,5.919,2.896c2.315,0,4.5-1.068,5.92-2.895l17.419-22.39l17.411,22.388   c1.421,1.827,3.606,2.896,5.92,2.896s4.5-1.069,5.92-2.896l17.41-22.387l17.41,22.387c2.542,3.27,7.254,3.86,10.524,1.316   c3.27-2.543,3.859-7.255,1.316-10.524l-23.33-30c-1.421-1.827-3.606-2.896-5.92-2.896s-4.5,1.069-5.92,2.896l-17.41,22.387   l-17.41-22.387c-1.421-1.827-3.605-2.896-5.919-2.896c-2.315,0-4.5,1.068-5.92,2.895l-17.419,22.39L163.86,55.066   c-1.421-1.827-3.605-2.896-5.919-2.896c-2.315,0-4.5,1.068-5.92,2.895l-23.34,30C126.137,88.334,126.726,93.046,129.995,95.589z" fill="#082947"/></g><g transform="matrix(-0.062958724796772 0 0 0.062958724796772 113.68498140505699 324.24436834946584)"><path d="M196.87,424.495h75v-34.404c0-4.142,3.357-7.5,7.5-7.5v-15h-82.5V424.495z" fill="#ffffff"/><path d="M453.74,302.385H15v27.707c0,12.407,10.094,22.5,22.5,22.5h393.74c12.406,0,22.5-10.093,22.5-22.5   V302.385z" fill="#98d9d5"/><path d="M309.37,232.385c-4.143,0-7.5-3.358-7.5-7.5v-19.896c0-0.02,0.003-0.04,0.003-0.059   c0.001-0.109,0.01-0.217,0.016-0.325c0.008-0.158,0.017-0.315,0.035-0.471c0.089-0.726,0.259-1.394,0.523-2.029l23.878-57.309   c0.009-0.021,0.017-0.042,0.026-0.063l17.03-40.873c1.164-2.794,3.896-4.615,6.923-4.615s5.759,1.82,6.923,4.615l17.027,40.863   c0.012,0.028,0.024,0.056,0.035,0.085l23.874,57.296c0.265,0.635,0.434,1.303,0.516,1.983c0.025,0.202,0.034,0.36,0.042,0.517   c0.006,0.108,0.015,0.217,0.016,0.325c0,0.02,0.003,0.04,0.003,0.059v19.896c0,4.142-3.357,7.5-7.5,7.5l0,15h22.5V84.245H286.87   v163.14h22.5V232.385z" fill="#ffffff"/><path d="M15,287.385h438.74V66.745c0-12.407-10.094-22.5-22.5-22.5H37.5c-12.406,0-22.5,10.093-22.5,22.5   V287.385z M271.87,76.745c0-4.142,3.357-7.5,7.5-7.5h141.87c4.143,0,7.5,3.358,7.5,7.5v178.14c0,4.142-3.357,7.5-7.5,7.5H279.37   c-4.143,0-7.5-3.358-7.5-7.5V76.745z M47.5,69.245H240c4.143,0,7.5,3.358,7.5,7.5s-3.357,7.5-7.5,7.5H47.5   c-4.143,0-7.5-3.358-7.5-7.5S43.357,69.245,47.5,69.245z M47.5,104.873H240c4.143,0,7.5,3.358,7.5,7.5s-3.357,7.5-7.5,7.5H47.5   c-4.143,0-7.5-3.358-7.5-7.5S43.357,104.873,47.5,104.873z M47.5,140.501h96.25c4.143,0,7.5,3.358,7.5,7.5s-3.357,7.5-7.5,7.5H47.5   c-4.143,0-7.5-3.358-7.5-7.5S43.357,140.501,47.5,140.501z M47.5,176.129H240c4.143,0,7.5,3.358,7.5,7.5s-3.357,7.5-7.5,7.5H47.5   c-4.143,0-7.5-3.358-7.5-7.5S43.357,176.129,47.5,176.129z M47.5,211.757H240c4.143,0,7.5,3.358,7.5,7.5s-3.357,7.5-7.5,7.5H47.5   c-4.143,0-7.5-3.358-7.5-7.5S43.357,211.757,47.5,211.757z M47.5,247.385h96.25c4.143,0,7.5,3.358,7.5,7.5s-3.357,7.5-7.5,7.5H47.5   c-4.143,0-7.5-3.358-7.5-7.5S43.357,247.385,47.5,247.385z" fill="#ffffff"/><path d="M431.24,29.245H37.5c-20.678,0-37.5,16.822-37.5,37.5v263.346c0,20.678,16.822,37.5,37.5,37.5   h144.37v56.904h-32.5c-4.143,0-7.5,3.358-7.5,7.5s3.357,7.5,7.5,7.5h170c4.143,0,7.5-3.358,7.5-7.5s-3.357-7.5-7.5-7.5h-32.5   v-34.404c0-4.142-3.357-7.5-7.5-7.5s-7.5,3.358-7.5,7.5v34.404h-75v-56.904h234.37c20.678,0,37.5-16.822,37.5-37.5V66.745   C468.74,46.067,451.918,29.245,431.24,29.245z M431.24,352.591H37.5c-12.406,0-22.5-10.093-22.5-22.5v-27.707h438.74v27.707   C453.74,342.498,443.646,352.591,431.24,352.591z M37.5,44.245h393.74c12.406,0,22.5,10.093,22.5,22.5v220.64H15V66.745   C15,54.338,25.094,44.245,37.5,44.245z" fill="#082947"/><path d="M47.5,84.245H240c4.143,0,7.5-3.358,7.5-7.5s-3.357-7.5-7.5-7.5H47.5c-4.143,0-7.5,3.358-7.5,7.5   S43.357,84.245,47.5,84.245z" fill="#082947"/><path d="M47.5,119.873H240c4.143,0,7.5-3.358,7.5-7.5s-3.357-7.5-7.5-7.5H47.5c-4.143,0-7.5,3.358-7.5,7.5   S43.357,119.873,47.5,119.873z" fill="#082947"/><path d="M47.5,155.501h96.25c4.143,0,7.5-3.358,7.5-7.5s-3.357-7.5-7.5-7.5H47.5c-4.143,0-7.5,3.358-7.5,7.5   S43.357,155.501,47.5,155.501z" fill="#082947"/><path d="M47.5,191.129H240c4.143,0,7.5-3.358,7.5-7.5s-3.357-7.5-7.5-7.5H47.5c-4.143,0-7.5,3.358-7.5,7.5   S43.357,191.129,47.5,191.129z" fill="#082947"/><path d="M47.5,226.757H240c4.143,0,7.5-3.358,7.5-7.5s-3.357-7.5-7.5-7.5H47.5c-4.143,0-7.5,3.358-7.5,7.5   S43.357,226.757,47.5,226.757z" fill="#082947"/><path d="M47.5,262.385h96.25c4.143,0,7.5-3.358,7.5-7.5s-3.357-7.5-7.5-7.5H47.5c-4.143,0-7.5,3.358-7.5,7.5   S43.357,262.385,47.5,262.385z" fill="#082947"/><path d="M383.74,224.885v-9.054c-2.746,0.589-5.566,0.906-8.419,0.906c-6.234,0-12.222-1.427-17.517-4.039   v12.188c0,4.142-3.357,7.5-7.5,7.5s-7.5-3.358-7.5-7.5v-12.187c-5.295,2.611-11.281,4.038-17.516,4.038   c-2.853,0-5.673-0.317-8.419-0.906v9.054c0,4.142-3.357,7.5-7.5,7.5v15h81.87v-15C387.098,232.385,383.74,229.027,383.74,224.885z" fill="#98d9d5"/><path d="M344.499,140.18 356.111,140.18 350.305,126.245z" fill="#98d9d5"/><path d="M381.444,200.977l-19.083-45.797h-24.113l-19.082,45.797c1.977,0.497,4.033,0.759,6.122,0.759   c7.763,0,14.818-3.454,18.874-9.239c1.404-2.002,3.696-3.195,6.142-3.195s4.737,1.192,6.141,3.194   c4.057,5.786,11.113,9.24,18.876,9.24C377.411,201.736,379.467,201.474,381.444,200.977z" fill="#ffcc75"/><path d="M316.87,224.885v-9.054c2.746,0.589,5.566,0.906,8.419,0.906c6.234,0,12.221-1.427,17.516-4.038   v12.187c0,4.142,3.357,7.5,7.5,7.5s7.5-3.358,7.5-7.5v-12.188c5.295,2.611,11.282,4.039,17.517,4.039   c2.853,0,5.673-0.317,8.419-0.906v9.054c0,4.142,3.357,7.5,7.5,7.5c4.143,0,7.5-3.358,7.5-7.5v-19.896   c0-0.02-0.003-0.04-0.003-0.059c-0.001-0.109-0.01-0.217-0.016-0.325c-0.008-0.158-0.017-0.315-0.035-0.471   c-0.089-0.726-0.259-1.394-0.523-2.029l-23.874-57.296c-0.012-0.028-0.023-0.056-0.035-0.085l-17.027-40.863   c-1.164-2.795-3.896-4.615-6.923-4.615s-5.759,1.821-6.923,4.615l-17.03,40.873c-0.009,0.021-0.017,0.042-0.026,0.063   l-23.878,57.309c-0.265,0.635-0.434,1.303-0.516,1.983c-0.025,0.202-0.034,0.36-0.042,0.517c-0.006,0.108-0.015,0.217-0.016,0.325   c0,0.02-0.003,0.04-0.003,0.059v19.896c0,4.142,3.357,7.5,7.5,7.5S316.87,229.027,316.87,224.885z M356.445,192.496   c-1.403-2.002-3.695-3.194-6.141-3.194s-4.737,1.192-6.142,3.195c-4.056,5.785-11.111,9.239-18.874,9.239   c-2.089,0-4.146-0.261-6.122-0.759l19.082-45.797h24.113l19.083,45.797c-1.977,0.497-4.033,0.759-6.122,0.759   C367.559,201.736,360.502,198.282,356.445,192.496z M344.499,140.18l5.806-13.935l5.806,13.935H344.499z" fill="#082947"/><path d="M279.37,262.385h141.87c4.143,0,7.5-3.358,7.5-7.5V76.745c0-4.142-3.357-7.5-7.5-7.5H279.37   c-4.143,0-7.5,3.358-7.5,7.5v178.14C271.87,259.027,275.228,262.385,279.37,262.385z M286.87,84.245h126.87v163.14H286.87V84.245z" fill="#082947"/></g></defs><g fi:class="KUsePattern"><pattern id="pattern_L1_0" width="350" height="350" patternUnits="userSpaceOnUse"><use xlink:href="#L1_0" x="-350" y="-350"/><use xlink:href="#L1_0" x="0" y="-350"/><use xlink:href="#L1_0" x="350" y="-350"/><use xlink:href="#L1_0" x="-350" y="0"/><use xlink:href="#L1_0" x="0" y="0"/><use xlink:href="#L1_0" x="350" y="0"/><use xlink:href="#L1_0" x="-350" y="350"/><use xlink:href="#L1_0" x="0" y="350"/><use xlink:href="#L1_0" x="350" y="350"/></pattern><rect x="0" y="0" width="100%" height="100%" fill="url(#pattern_L1_0)"/></g><g fi:class="KUsePattern"><pattern id="pattern_L1_1" width="350" height="350" patternUnits="userSpaceOnUse"><use xlink:href="#L1_1" x="-350" y="-350"/><use xlink:href="#L1_1" x="0" y="-350"/><use xlink:href="#L1_1" x="350" y="-350"/><use xlink:href="#L1_1" x="-350" y="0"/><use xlink:href="#L1_1" x="0" y="0"/><use xlink:href="#L1_1" x="350" y="0"/><use xlink:href="#L1_1" x="-350" y="350"/><use xlink:href="#L1_1" x="0" y="350"/><use xlink:href="#L1_1" x="350" y="350"/></pattern><rect x="0" y="0" width="100%" height="100%" fill="url(#pattern_L1_1)"/></g><g fi:class="KUsePattern"><pattern id="pattern_L1_2" width="350" height="350" patternUnits="userSpaceOnUse"><use xlink:href="#L1_2" x="-350" y="-350"/><use xlink:href="#L1_2" x="0" y="-350"/><use xlink:href="#L1_2" x="350" y="-350"/><use xlink:href="#L1_2" x="-350" y="0"/><use xlink:href="#L1_2" x="0" y="0"/><use xlink:href="#L1_2" x="350" y="0"/><use xlink:href="#L1_2" x="-350" y="350"/><use xlink:href="#L1_2" x="0" y="350"/><use xlink:href="#L1_2" x="350" y="350"/></pattern><rect x="0" y="0" width="100%" height="100%" fill="url(#pattern_L1_2)"/></g><g fi:class="KUsePattern"><pattern id="pattern_L1_3" width="350" height="350" patternUnits="userSpaceOnUse"><use xlink:href="#L1_3" x="-350" y="-350"/><use xlink:href="#L1_3" x="0" y="-350"/><use xlink:href="#L1_3" x="350" y="-350"/><use xlink:href="#L1_3" x="-350" y="0"/><use xlink:href="#L1_3" x="0" y="0"/><use xlink:href="#L1_3" x="350" y="0"/><use xlink:href="#L1_3" x="-350" y="350"/><use xlink:href="#L1_3" x="0" y="350"/><use xlink:href="#L1_3" x="350" y="350"/></pattern><rect x="0" y="0" width="100%" height="100%" fill="url(#pattern_L1_3)"/></g><g fi:class="KUsePattern" transform="matrix(1 0 0 1 20 20)"><pattern id="pattern_UNKNOWN" width="350" height="350" patternUnits="userSpaceOnUse"><use xlink:href="#UNKNOWN" x="-350" y="-350"/><use xlink:href="#UNKNOWN" x="0" y="-350"/><use xlink:href="#UNKNOWN" x="350" y="-350"/><use xlink:href="#UNKNOWN" x="-350" y="0"/><use xlink:href="#UNKNOWN" x="0" y="0"/><use xlink:href="#UNKNOWN" x="350" y="0"/><use xlink:href="#UNKNOWN" x="-350" y="350"/><use xlink:href="#UNKNOWN" x="0" y="350"/><use xlink:href="#UNKNOWN" x="350" y="350"/></pattern><rect x="0" y="0" width="100%" height="100%" fill="url(#pattern_UNKNOWN)"/></g></svg>